<svg width="44" height="16" viewBox="0 0 44 16" fill="none" xmlns="http://www.w3.org/2000/svg">
<path d="M11.6604 1.81018C11.3693 2.77319 7.54157 12.4637 10.3031 13.8755C10.7557 14.1069 14.9374 14.3612 15.3928 13.7791C17.5785 10.9856 16.75 7.01958 16.75 3.54481" stroke="white" stroke-width="3" stroke-linecap="round"/>
<path d="M22.1916 6.66711C21.8497 8.85179 21.5129 10.7542 21.5129 12.9118" stroke="white" stroke-width="3" stroke-linecap="round"/>
<path d="M26.6089 5.98621C26.6089 8.17973 27.0629 10.6466 27.6457 12.732C28.0474 14.1695 31.2792 13.6186 32.3771 13.6186" stroke="white" stroke-width="3" stroke-linecap="round"/>
<path d="M35.4309 13.6185H37.1275" stroke="white" stroke-width="3" stroke-linecap="round"/>
<path d="M37.4731 4.25171C37.4731 7.58351 37.8125 10.7773 37.8125 13.9657" stroke="white" stroke-width="3" stroke-linecap="round"/>
<path d="M2.17871 10.1364C5.92966 9.40585 9.97307 9.78943 13.7906 9.78943C17.1837 9.78943 20.5768 9.78943 23.9699 9.78943C30.0273 9.78943 36.3528 9.4425 42.2172 9.4425" stroke="white" stroke-width="3" stroke-linecap="round"/>
</svg>
