<svg width="56" height="31" viewBox="0 0 56 31" fill="none" xmlns="http://www.w3.org/2000/svg">
<rect width="55.8" height="31" fill="white"/>
<rect y="6.2" width="55.8" height="7.44" fill="#DEE2E6"/>
<rect x="2.47998" y="16.12" width="24.8" height="3.72" fill="#DEE2E6"/>
<path d="M37.6885 16.3448H37.0782L36.2042 16.9112V17.4923L37.0294 16.965H37.0489V19.88H37.6885V16.3448ZM38.5479 19.88H41.004V19.3478H39.4317V19.3234L40.0616 18.6984C40.7574 18.0416 40.9478 17.7194 40.9503 17.3214C40.9478 16.7281 40.462 16.296 39.7393 16.296C39.0338 16.296 38.5308 16.7306 38.5333 17.3995H39.1387C39.1363 17.0406 39.3707 16.8136 39.7344 16.8136C40.0787 16.8136 40.3399 17.0211 40.3399 17.3507C40.3399 17.6486 40.1544 17.8585 39.7979 18.215L38.5479 19.421V19.88ZM42.8448 19.9288C43.6089 19.9288 44.168 19.4967 44.1631 18.8986C44.168 18.4542 43.8848 18.1344 43.3868 18.0685V18.0392C43.7725 17.9586 44.0362 17.673 44.0313 17.2775C44.0362 16.7355 43.5723 16.296 42.8546 16.296C42.1636 16.296 41.6241 16.7037 41.6094 17.297H42.2198C42.232 16.9991 42.5176 16.8136 42.8497 16.8136C43.1939 16.8136 43.4185 17.0138 43.4161 17.3116C43.4185 17.6193 43.1573 17.8292 42.7813 17.8292H42.4639V18.3175H42.7813C43.2403 18.3199 43.5137 18.547 43.5137 18.8644C43.5137 19.1793 43.233 19.3942 42.8448 19.3917C42.4761 19.3942 42.1929 19.2062 42.1758 18.923H41.5362C41.5508 19.5187 42.0904 19.9288 42.8448 19.9288Z" fill="black"/>
<circle cx="40" cy="18" r="6.5" stroke="#FF0000"/>
</svg>
