<svg width="13" height="13" viewBox="0 0 13 13" fill="none" xmlns="http://www.w3.org/2000/svg">
<circle cx="6.5" cy="6.5" r="6.5" fill="#343A40"/>
<path d="M6.9541 7.82715H5.70898C5.71224 7.53418 5.73503 7.2819 5.77734 7.07031C5.82292 6.85547 5.89941 6.66178 6.00684 6.48926C6.11751 6.31673 6.264 6.14583 6.44629 5.97656C6.59928 5.83984 6.73275 5.70964 6.84668 5.58594C6.96061 5.46224 7.05013 5.33529 7.11523 5.20508C7.18034 5.07161 7.21289 4.9235 7.21289 4.76074C7.21289 4.57194 7.18359 4.41569 7.125 4.29199C7.06966 4.16504 6.98503 4.06901 6.87109 4.00391C6.76042 3.9388 6.62044 3.90625 6.45117 3.90625C6.3112 3.90625 6.18099 3.93717 6.06055 3.99902C5.9401 4.05762 5.84082 4.14876 5.7627 4.27246C5.68783 4.39616 5.64876 4.55892 5.64551 4.76074H4.22949C4.23926 4.31478 4.3418 3.94694 4.53711 3.65723C4.73568 3.36426 5.00098 3.14779 5.33301 3.00781C5.66504 2.86458 6.03776 2.79297 6.45117 2.79297C6.9069 2.79297 7.29753 2.86784 7.62305 3.01758C7.94857 3.16406 8.19759 3.38053 8.37012 3.66699C8.54264 3.9502 8.62891 4.29525 8.62891 4.70215C8.62891 4.98535 8.57357 5.23763 8.46289 5.45898C8.35221 5.67708 8.20736 5.88053 8.02832 6.06934C7.84928 6.25814 7.65234 6.45345 7.4375 6.65527C7.25195 6.82129 7.125 6.99544 7.05664 7.17773C6.99154 7.36003 6.95736 7.5765 6.9541 7.82715ZM5.5625 9.33594C5.5625 9.1276 5.63411 8.95508 5.77734 8.81836C5.92057 8.67839 6.11263 8.6084 6.35352 8.6084C6.59115 8.6084 6.78158 8.67839 6.9248 8.81836C7.07129 8.95508 7.14453 9.1276 7.14453 9.33594C7.14453 9.53776 7.07129 9.70866 6.9248 9.84863C6.78158 9.98861 6.59115 10.0586 6.35352 10.0586C6.11263 10.0586 5.92057 9.98861 5.77734 9.84863C5.63411 9.70866 5.5625 9.53776 5.5625 9.33594Z" fill="white"/>
</svg>
