<svg width="27" height="27" xmlns="http://www.w3.org/2000/svg" fill="none">
 <g>
  <circle id="svg_1" stroke="#BABABA" fill="white" r="13" cy="13.68072" cx="13.5"/>
  <path id="svg_2" fill="#969696" d="m12.18041,16.44891c0,-0.86587 0.10742,-1.55598 0.32226,-2.0703c0.21485,-0.51432 0.63802,-1.07747 1.26953,-1.68945c0.63803,-0.61849 1.04167,-1.05795 1.21094,-1.31836c0.26042,-0.39714 0.39063,-0.82683 0.39063,-1.28907c0,-0.61197 -0.153,-1.07747 -0.45899,-1.39648c-0.29948,-0.32552 -0.74218,-0.48828 -1.32812,-0.48828c-0.5599,0 -1.01237,0.1595 -1.35742,0.47852c-0.33855,0.3125 -0.50782,0.73893 -0.50782,1.27929l-2.37304,0c0.01302,-1.15234 0.40364,-2.0638 1.17187,-2.73437c0.77474,-0.67058 1.79688,-1.00586 3.06641,-1.00586c1.30859,0 2.32747,0.33203 3.05664,0.99609c0.73568,0.66406 1.10351,1.5918 1.10351,2.7832c0,1.0612 -0.49479,2.10612 -1.48437,3.13477l-1.20117,1.18164c-0.42969,0.48828 -0.65104,1.20117 -0.66407,2.13866l-2.21679,0zm-0.16602,3.0371c0,-0.3841 0.12044,-0.6933 0.36133,-0.9277c0.24089,-0.2409 0.56641,-0.3613 0.97656,-0.3613c0.41667,0 0.74545,0.1237 0.98633,0.3711c0.24089,0.2408 0.36133,0.5468 0.36133,0.9179c0,0.3581 -0.11719,0.6576 -0.35156,0.8985c-0.23438,0.2408 -0.56641,0.3613 -0.9961,0.3613c-0.42968,0 -0.76172,-0.1205 -0.99609,-0.3613c-0.22787,-0.2409 -0.3418,-0.5404 -0.3418,-0.8985z"/>
 </g>
</svg>